<svg width="206" height="205" viewBox="0 0 206 205" fill="none" xmlns="http://www.w3.org/2000/svg">
<path fill-rule="evenodd" clip-rule="evenodd" d="M15 106.59C37.8642 111.034 100.409 122.491 122.121 89.9306C134.041 72.0553 131.105 32.3361 132.65 29C135.285 44.7061 143.965 82.0295 149.467 95.4231C156.88 105.308 176.251 111.951 191.467 112.727C181.955 129.453 161.402 144.386 189.133 158.503C172.213 183.047 76.8102 198.089 17.9999 195.09C22.3793 165.809 20.6159 133.922 15 106.59Z" fill="#DCAAAA"/>
<path fill-rule="evenodd" clip-rule="evenodd" d="M0 94.5C28 98.5 95.6845 116.08 120 75C133.349 52.4478 127.333 4.16667 129 0C133.167 19 146 64 153.5 80C163.1 91.6 187 98.5 205.5 98.5C195 119.5 171 139 205.5 154.5C186.5 185.5 75 205 3.5 205C7 169 8.5 127.5 0 94.5ZM22 117.5C25.892 141 25.8916 167.5 25.8916 188.453C81.2045 187.501 166.657 172.955 181.025 153.5C169.499 142 171 128 178.5 112.5C154 109 140.5 97.4998 135.5 79.5C135.5 79.5 118.868 101.621 108.5 106.5C79.863 119.974 43.7037 119.605 22 117.5Z" fill="#D9D9D9"/>
</svg>
