<svg width="139" height="294" viewBox="0 0 139 294" fill="none" xmlns="http://www.w3.org/2000/svg">
<path d="M9 115.5C9 235.5 26.5 227 56.5394 265C64.5394 183.5 108.039 197.5 128.539 168C121.039 50.5 100.5 49.5 77 20C65.5 98.5 55.5582 67.8497 9 115.5Z" fill="#D9D9D9" fill-opacity="0.5"/>
<path d="M0 115C0.00961552 239.586 31 257 65.5 294C74.5 206 117 206.5 137.5 177C145 52.5 99.4236 32.9676 74 0C62.5 78.5 46.5582 67.3497 0 115Z" fill="url(#paint0_linear_59_27)"/>
<path d="M9.5 118C9.50775 218.144 31.0898 224.385 54 257.5C60.3202 183.688 108.196 191.833 124 165.5C124 76.1282 101.5 52.5 81 26C66.0419 93.5 47.0417 79.6978 9.5 118Z" fill="#698BAD"/>
<path d="M74 0C99.4236 32.9676 145 52.5 137.5 177C117 206.5 74.5 206 65.5 294C31 257 0.00961552 239.586 0 115C46.5582 67.3497 62.5 78.5 74 0ZM77 20C65.5 98.5 55.5582 67.8497 9 115.5C6.50043 224 26.4997 227 56.5391 265C70.4996 188 108.039 197.5 128.539 168C121.039 50.5 100.5 49.5 77 20Z" fill="url(#paint1_linear_59_27)"/>
<path d="M80.5 26C82.173 28.1627 83.8586 30.307 85.5449 32.4688C85.5242 35.2119 85.5 38.5063 85.5 42.5C83.5 63 61.9996 94 18.498 122.5C9.52498 165.496 37.1297 221.743 54.9277 249.185C54.5578 251.835 54.2479 254.604 54 257.5C31.0898 224.385 9.00775 218.144 9 118C46.5417 79.6978 65.5419 93.5 80.5 26Z" fill="black" fill-opacity="0.5"/>
<defs>
<linearGradient id="paint0_linear_59_27" x1="97.5" y1="147" x2="-37" y2="109" gradientUnits="userSpaceOnUse">
<stop stop-color="#D9D9D9"/>
<stop offset="1"/>
</linearGradient>
<linearGradient id="paint1_linear_59_27" x1="26.5" y1="79.5" x2="138" y2="248" gradientUnits="userSpaceOnUse">
<stop stop-color="#D9D9D9"/>
<stop offset="1" stop-color="#1E1E1E"/>
</linearGradient>
</defs>
</svg>
