<svg width="127" height="277" viewBox="0 0 127 277" fill="none" xmlns="http://www.w3.org/2000/svg">
<path d="M111 0C111.163 0.596555 111.257 1.19957 111.418 1.80859L0 209L8.93359 73C17.9336 73 42.4336 66 31.9336 38.5C49.4336 35 99.5 31 111 0Z" fill="url(#paint0_linear_80_62)"/>
<path d="M111 0C128.586 66.8209 134.264 209.656 110 277C92 254 53.5 210 13 239C18.6667 226.333 32.0788 197.416 42.1318 187.067C56.9181 171.846 14.2833 192.293 0 209L111 0Z" fill="url(#paint1_linear_80_62)"/>
<g filter="url(#filter0_ii_80_62)">
<path d="M17 81L12 184C25 171.5 60 167.5 54 190.5C45.5749 199.205 39.749 208.845 35 219.5C69.5 219.5 83.5 236 104 254.5C122.5 197.5 117 82 104.5 24C86 41 57.1661 43.556 42.5 46.5C48.5 67.5 27 81 17 81Z" fill="url(#paint2_radial_80_62)"/>
</g>
<defs>
<filter id="filter0_ii_80_62" x="8" y="20" width="107.953" height="238.5" filterUnits="userSpaceOnUse" color-interpolation-filters="sRGB">
<feFlood flood-opacity="0" result="BackgroundImageFix"/>
<feBlend mode="normal" in="SourceGraphic" in2="BackgroundImageFix" result="shape"/>
<feColorMatrix in="SourceAlpha" type="matrix" values="0 0 0 0 0 0 0 0 0 0 0 0 0 0 0 0 0 0 127 0" result="hardAlpha"/>
<feOffset dx="-4" dy="-4"/>
<feGaussianBlur stdDeviation="2"/>
<feComposite in2="hardAlpha" operator="arithmetic" k2="-1" k3="1"/>
<feColorMatrix type="matrix" values="0 0 0 0 1 0 0 0 0 1 0 0 0 0 1 0 0 0 0.25 0"/>
<feBlend mode="normal" in2="shape" result="effect1_innerShadow_80_62"/>
<feColorMatrix in="SourceAlpha" type="matrix" values="0 0 0 0 0 0 0 0 0 0 0 0 0 0 0 0 0 0 127 0" result="hardAlpha"/>
<feOffset dy="4"/>
<feGaussianBlur stdDeviation="2"/>
<feComposite in2="hardAlpha" operator="arithmetic" k2="-1" k3="1"/>
<feColorMatrix type="matrix" values="0 0 0 0 0 0 0 0 0 0 0 0 0 0 0 0 0 0 0.25 0"/>
<feBlend mode="normal" in2="effect1_innerShadow_80_62" result="effect2_innerShadow_80_62"/>
</filter>
<linearGradient id="paint0_linear_80_62" x1="24.5" y1="45.5" x2="-15.5" y2="248.5" gradientUnits="userSpaceOnUse">
<stop stop-color="#D9D9D9"/>
<stop offset="1" stop-color="#B5B5B5"/>
</linearGradient>
<linearGradient id="paint1_linear_80_62" x1="12" y1="265" x2="177.5" y2="-27" gradientUnits="userSpaceOnUse">
<stop stop-color="#D9D9D9"/>
<stop offset="1" stop-color="#C8C8C8"/>
</linearGradient>
<radialGradient id="paint2_radial_80_62" cx="0" cy="0" r="1" gradientUnits="userSpaceOnUse" gradientTransform="translate(70.5 139) rotate(79.1527) scale(85.0191 115.908)">
<stop stop-color="#48BEFF"/>
<stop offset="0.756274" stop-color="#29729C"/>
</radialGradient>
</defs>
</svg>
