<svg width="206" height="205" viewBox="0 0 206 205" fill="none" xmlns="http://www.w3.org/2000/svg">
<path d="M-4.83011e-06 94.5C28 98.5 95.6845 116.08 120 75C133.349 52.4478 127.333 4.16667 129 -5.63877e-06C133.167 19 146 64 153.5 80C163.1 91.6 187 98.5 205.5 98.5C195 119.5 171 139 205.5 154.5C186.5 185.5 75 205 3.5 205C7 169 8.5 127.5 -4.83011e-06 94.5ZM22 117.5C25.892 141 25.8916 167.5 25.8916 188.453C81.2045 187.501 166.657 172.955 181.025 153.5C169.499 142 171 128 178.5 112.5C154 109 140.5 97.4998 135.5 79.5C135.5 79.5 118.868 101.621 108.5 106.5C79.863 119.974 43.7037 119.605 22 117.5Z" fill="#D9D9D9"/>
</svg>
